<?xml version="1.0" encoding="utf-8"?>
<!-- Generator: Adobe Illustrator 23.0.3, SVG Export Plug-In . SVG Version: 6.00 Build 0)  -->
<svg version="1.1" id="Layer_1" xmlns="http://www.w3.org/2000/svg" xmlns:xlink="http://www.w3.org/1999/xlink" x="0px" y="0px"
	width="30px" height="30px"
	 viewBox="0 0 512 512" style="enable-background:new 0 0 512 512;" xml:space="preserve">
<style type="text/css">
	.st0{fill:#ffff;}
</style>
<path class="st0" d="M256,106.7c-11.8,0-21.3,9.6-21.3,21.3v128c0,11.8,9.5,21.3,21.3,21.3h128c11.8,0,21.3-9.6,21.3-21.3
	s-9.5-21.3-21.3-21.3H277.3V128C277.3,116.2,267.8,106.7,256,106.7z"/>
<path class="st0" d="M256,0C188.2,0,122.5,27.1,73.6,72.3L27.3,26c-4.6-4.6-11.5-6-17.4-3.5C3.9,25,0,30.9,0,37.3V176
	c0,8.8,7.2,16,16,16h138.7c6.5,0,12.3-3.9,14.8-9.9c2.5-6,1.1-12.9-3.5-17.4l-62-62c40.9-37.4,95.4-60,152-60
	c117.6,0,213.3,95.7,213.3,213.3S373.6,469.3,256,469.3c-57,0-110.6-22.2-150.7-62.5c-8.3-8.4-21.8-8.4-30.2-0.1
	c-8.4,8.3-8.4,21.8-0.1,30.2C123.3,485.3,187.5,512,256,512c141.2,0,256-114.8,256-256S397.2,0,256,0z"/>
</svg>
