<?xml version="1.0" encoding="utf-8"?>
<!-- Generator: Adobe Illustrator 23.0.2, SVG Export Plug-In . SVG Version: 6.00 Build 0)  -->
<svg version="1.1" id="Layer_1" xmlns="http://www.w3.org/2000/svg" xmlns:xlink="http://www.w3.org/1999/xlink" x="0px" y="0px"
	width="300px" height="300px"
	 viewBox="0 0 179.5266 251.7578" enable-background="new 0 0 179.5266 251.7578" xml:space="preserve">
<g>
	<path d="M24.9614,234.5358c-2.25,6.5264,1.2158,13.6416,7.7422,15.8921c1.3496,0.4653,2.7246,0.686,4.0762,0.686
		c5.1846,0,10.0313-3.2515,11.8164-8.4287l20-58c1.6436-4.7661,0.2627-10.0532-3.502-13.4072l-31.2358-27.8318
		c3.7344-10.9933,10.3992-21.7697,16.5753-31.0132l-11.3292-9.2536c-4.3984-3.5928-5.0547-10.0942-1.4619-14.4932
		c1.9648-2.4053,4.875-3.7852,7.9824-3.7852c2.3643,0,4.6768,0.8252,6.5107,2.3237l9.3055,7.6005
		c0.2036-0.5781,0.3853-1.1588,0.5438-1.7432l19.4651,5.486c0.7119,0.2012,1.4424,0.3008,2.1699,0.3008
		c1.3105,0,2.6123-0.3223,3.7861-0.9531l31.0544-16.686c0.2787,0.5551,0.6588,1.0701,1.1526,1.5053l1.5319,1.3498l-9.4747,10.7546
		l1.8759,1.6526l34.0439-38.6428l-1.8759-1.6526l-9.4749,10.7548l-1.5324-1.3497c-2.0684-1.8218-5.2324-1.6226-7.0566,0.4468
		l-3.1996,3.6318c-0.0877-0.2012-0.1781-0.4019-0.2838-0.5986c-2.0908-3.8931-6.9443-5.3511-10.833-3.2607l-6.5809,3.5359
		c-0.7514,3.1702-2.1404,6.2419-4.2009,9.0201c-4.6582,6.2803-12.1113,10.0293-19.9365,10.0293
		c-5.3467,0-10.4492-1.6885-14.7559-4.8818c-2.6911-1.9961-4.9056-4.463-6.5651-7.2604l-7.0723-1.9934
		c-7.38-3.0116-18.103-1.8404-26.7825,7.8744C13.3491,98.1056,6.9121,109.6434,0.687,131.1246
		c-1.0034,4.8005-0.8481,8.6785,0.0806,11.8564c0.2925,3.0228,1.6665,5.949,4.1128,8.1284l37.3672,33.2959L24.9614,234.5358z
		 M129.1503,67.3708c1.0938-1.2397,2.9932-1.3633,4.2344-0.2681l1.5323,1.3497l-12.4496,14.1314l-1.5319-1.3498
		c-0.3102-0.2732-0.5503-0.5968-0.719-0.9478l0.6897-0.3705c2.9572-1.5887,4.5054-4.7698,4.1639-7.9135L129.1503,67.3708z"/>
	<path d="M159.5706,156.4109c0-1.4316-0.5261-2.5921-1.1751-2.5921c-0.6489,0-1.175,1.1605-1.175,2.5921
		c0,0.7193,0.1332,1.3695,0.3477,1.8391h-0.8339h-2.8961h-0.8339c0.2145-0.4696,0.3477-1.1198,0.3477-1.8391
		c0-1.4316-0.5261-2.5921-1.1751-2.5921c-0.6489,0-1.175,1.1605-1.175,2.5921c0,0.7193,0.1332,1.3695,0.3477,1.8391h-0.8339h-2.8961
		h-0.8339c0.2145-0.4696,0.3477-1.1198,0.3477-1.8391c0-1.4316-0.5261-2.5921-1.1751-2.5921c-0.6489,0-1.175,1.1605-1.175,2.5921
		c0,0.7193,0.1332,1.3695,0.3477,1.8391h-0.8339h-2.8961h-0.8339c0.2145-0.4696,0.3477-1.1198,0.3477-1.8391
		c0-1.4316-0.5261-2.5921-1.1751-2.5921c-0.6489,0-1.175,1.1605-1.175,2.5921c0,0.7193,0.1332,1.3695,0.3477,1.8391h-0.8339h-2.8961
		h-0.8339c0.2145-0.4696,0.3477-1.1198,0.3477-1.8391c0-1.4316-0.5261-2.5921-1.1751-2.5921c-0.6489,0-1.175,1.1605-1.175,2.5921
		c0,0.7193,0.1332,1.3695,0.3477,1.8391h-0.8339h-6.6509l-2.2202-5.8959l-2.8075,1.0572l1.8221,4.8387h-17.8094v5.6667h7.8367
		v87.8411h67.4966v-87.8411V162.75v-4.5h-9.4465l1.8221-4.8387l-2.8076-1.0572l-2.2202,5.8959h-6.8176h-0.8339
		C159.4375,157.7804,159.5706,157.1302,159.5706,156.4109z"/>
	<path d="M139.9178,89.7963c0.9678-0.9278,0.037-3.0879-0.9414-2.1485c-2.4405,2.3438-4.2832,5.6836-4.6807,9.7032
		c-0.4297,4.332,2.7686,7.1132,3.1289,11.1796c0.2422,2.7383-1.0371,5.7364-2.5019,7.5606
		c-0.8829,1.0957,0.4404,2.8516,1.3183,1.7578c2.4551-3.0527,3.5274-7.4707,2.7168-11.8047
		c-0.8066-4.3145-3.8828-6.3906-2.2197-11.3105C137.3846,92.8197,138.6414,91.0228,139.9178,89.7963z"/>
	<path d="M150.8503,89.7963c0.9668-0.9278,0.0371-3.0879-0.9414-2.1485c-2.4395,2.3438-4.2832,5.6836-4.6817,9.7032
		c-0.4277,4.332,2.7697,7.1132,3.1299,11.1796c0.2422,2.7383-1.0371,5.7364-2.5019,7.5606
		c-0.8819,1.0957,0.4404,2.8516,1.3183,1.7578c2.4551-3.0527,3.5274-7.4707,2.7168-11.8047
		c-0.8056-4.3145-3.8828-6.3906-2.2197-11.3105C148.3171,92.8197,149.574,91.0228,150.8503,89.7963z"/>
	<path d="M161.782,89.7963c0.9678-0.9278,0.0381-3.0879-0.9404-2.1485c-2.4404,2.3438-4.2832,5.6836-4.6816,9.7032
		c-0.4287,4.332,2.7685,7.1132,3.1289,11.1796c0.2431,2.7383-1.0371,5.7364-2.502,7.5606
		c-0.8818,1.0957,0.4414,2.8516,1.3194,1.7578c2.4541-3.0527,3.5263-7.4707,2.7168-11.8047
		c-0.8057-4.3145-3.8838-6.3906-2.2198-11.3105C159.2498,92.8197,160.5066,91.0228,161.782,89.7963z"/>
	<path d="M179.5266,20V0h-81l9.6666,20H179.5266z M120.8955,4.6667c1.4498,0,2.625,1.1752,2.625,2.625
		c0,1.4497-1.1752,2.625-2.625,2.625c-1.4497,0-2.625-1.1753-2.625-2.625C118.2705,5.8419,119.4458,4.6667,120.8955,4.6667z
		 M112.2705,4.6667c1.4498,0,2.625,1.1752,2.625,2.625c0,1.4497-1.1752,2.625-2.625,2.625c-1.4497,0-2.625-1.1753-2.625-2.625
		C109.6455,5.8419,110.8208,4.6667,112.2705,4.6667z"/>
	<rect x="107.8599" y="23.3333" width="71.6667" height="4"/>
	<path d="M69.23,81.6773c9.9821,7.403,24.0714,5.3121,31.4745-4.6701c7.4018-9.9805,5.3135-24.0717-4.6686-31.4747
		c-9.9807-7.4019-24.0735-5.311-31.4753,4.6695C57.1574,60.1842,59.2493,74.2754,69.23,81.6773z"/>
	<polygon points="101.6837,95.0601 99.5623,97.1815 101.9403,99.5594 105.2873,98.6638 	"/>
	<path d="M125.7823,123.4015h4.2427l-11.4943-11.4943c-0.3618,0.983-0.8728,1.9028-1.5099,2.7328L125.7823,123.4015z"/>
	<path d="M121.4469,125.7017v20c0,2.2,1.8,4,4,4h40.3333c2.2,0,4-1.8,4-4v-20H121.4469z"/>
	<path d="M50.6806,89.006c-3.4219-2.7959-8.4609-2.2871-11.2568,1.1353c-2.7949,3.4219-2.2861,8.4619,1.1357,11.2568l27.75,22.666
		c1.4443,1.1797,3.2373,1.8037,5.0605,1.8037c0.6904,0,1.3857-0.0898,2.0684-0.2715l35.5-9.5
		c4.2676-1.1426,6.8018-5.5283,5.6602-9.7969c-1.1426-4.2676-5.5273-6.7969-9.7969-5.6602l-31.543,8.4414L50.6806,89.006z"/>
</g>
</svg>
